<mxfile host="app.diagrams.net" agent="Mozilla/5.0 (Windows NT 10.0; Win64; x64) AppleWebKit/537.36 (KHTML, like Gecko) Chrome/129.0.0.0 Safari/537.36" version="24.7.17">
  <diagram name="Page-1" id="e_halUc76deGq49holIJ">
    <mxGraphModel dx="1839" dy="509" grid="1" gridSize="10" guides="1" tooltips="1" connect="1" arrows="1" fold="1" page="1" pageScale="1" pageWidth="850" pageHeight="1100" math="0" shadow="0">
      <root>
        <mxCell id="0" />
        <mxCell id="1" parent="0" />
        <mxCell id="vUF_7vjwksg9Bk0UgLO3-3" value="Department" style="rounded=1;whiteSpace=wrap;html=1;" vertex="1" parent="1">
          <mxGeometry x="-475" y="170" width="110" height="60" as="geometry" />
        </mxCell>
        <mxCell id="vUF_7vjwksg9Bk0UgLO3-4" value="Faculty member" style="rounded=1;whiteSpace=wrap;html=1;" vertex="1" parent="1">
          <mxGeometry x="30" y="130" width="120" height="60" as="geometry" />
        </mxCell>
        <mxCell id="vUF_7vjwksg9Bk0UgLO3-5" value="Program" style="rounded=1;whiteSpace=wrap;html=1;" vertex="1" parent="1">
          <mxGeometry x="-520" y="490" width="120" height="60" as="geometry" />
        </mxCell>
        <mxCell id="vUF_7vjwksg9Bk0UgLO3-6" value="course" style="rounded=1;whiteSpace=wrap;html=1;" vertex="1" parent="1">
          <mxGeometry x="-440" y="860" width="120" height="60" as="geometry" />
        </mxCell>
        <mxCell id="vUF_7vjwksg9Bk0UgLO3-7" value="Student" style="rounded=1;whiteSpace=wrap;html=1;" vertex="1" parent="1">
          <mxGeometry x="30" y="610" width="120" height="60" as="geometry" />
        </mxCell>
        <mxCell id="vUF_7vjwksg9Bk0UgLO3-8" value="Class" style="rounded=1;whiteSpace=wrap;html=1;" vertex="1" parent="1">
          <mxGeometry x="280" y="970" width="120" height="60" as="geometry" />
        </mxCell>
        <mxCell id="vUF_7vjwksg9Bk0UgLO3-11" value="&lt;p style=&quot;line-height: 120%;&quot;&gt;&lt;font color=&quot;#432eff&quot;&gt;D.name&lt;/font&gt;&lt;/p&gt;" style="ellipse;whiteSpace=wrap;html=1;rounded=1;" vertex="1" parent="1">
          <mxGeometry x="-530" y="125" width="60" height="20" as="geometry" />
        </mxCell>
        <mxCell id="vUF_7vjwksg9Bk0UgLO3-13" value="&lt;font color=&quot;#0000ff&quot;&gt;Location&lt;/font&gt;" style="ellipse;whiteSpace=wrap;html=1;rounded=1;" vertex="1" parent="1">
          <mxGeometry x="-570" y="160" width="70" height="30" as="geometry" />
        </mxCell>
        <mxCell id="vUF_7vjwksg9Bk0UgLO3-16" value="" style="endArrow=none;html=1;rounded=0;exitX=1;exitY=0.5;exitDx=0;exitDy=0;entryX=0;entryY=0.25;entryDx=0;entryDy=0;" edge="1" parent="1" source="vUF_7vjwksg9Bk0UgLO3-13" target="vUF_7vjwksg9Bk0UgLO3-3">
          <mxGeometry relative="1" as="geometry">
            <mxPoint x="-585" y="130" as="sourcePoint" />
            <mxPoint x="-425" y="130" as="targetPoint" />
          </mxGeometry>
        </mxCell>
        <mxCell id="vUF_7vjwksg9Bk0UgLO3-17" value="" style="endArrow=none;html=1;rounded=0;exitX=0.557;exitY=0.998;exitDx=0;exitDy=0;exitPerimeter=0;entryX=0.012;entryY=0.087;entryDx=0;entryDy=0;entryPerimeter=0;" edge="1" parent="1" source="vUF_7vjwksg9Bk0UgLO3-11" target="vUF_7vjwksg9Bk0UgLO3-3">
          <mxGeometry relative="1" as="geometry">
            <mxPoint x="-445" y="100" as="sourcePoint" />
            <mxPoint x="-285" y="100" as="targetPoint" />
          </mxGeometry>
        </mxCell>
        <mxCell id="vUF_7vjwksg9Bk0UgLO3-31" value="offers" style="shape=rhombus;perimeter=rhombusPerimeter;whiteSpace=wrap;html=1;align=center;" vertex="1" parent="1">
          <mxGeometry x="-500" y="330" width="120" height="60" as="geometry" />
        </mxCell>
        <mxCell id="vUF_7vjwksg9Bk0UgLO3-32" value="" style="endArrow=none;html=1;rounded=0;entryX=0.5;entryY=0;entryDx=0;entryDy=0;exitX=0.5;exitY=1;exitDx=0;exitDy=0;" edge="1" parent="1" source="vUF_7vjwksg9Bk0UgLO3-3" target="vUF_7vjwksg9Bk0UgLO3-31">
          <mxGeometry relative="1" as="geometry">
            <mxPoint x="-560" y="190" as="sourcePoint" />
            <mxPoint x="-400" y="190" as="targetPoint" />
          </mxGeometry>
        </mxCell>
        <mxCell id="vUF_7vjwksg9Bk0UgLO3-37" value="" style="endArrow=none;html=1;rounded=0;entryX=0.5;entryY=1;entryDx=0;entryDy=0;exitX=0.5;exitY=0;exitDx=0;exitDy=0;" edge="1" parent="1" source="vUF_7vjwksg9Bk0UgLO3-5" target="vUF_7vjwksg9Bk0UgLO3-31">
          <mxGeometry relative="1" as="geometry">
            <mxPoint x="-560" y="190" as="sourcePoint" />
            <mxPoint x="-400" y="190" as="targetPoint" />
          </mxGeometry>
        </mxCell>
        <mxCell id="vUF_7vjwksg9Bk0UgLO3-38" value="&lt;font color=&quot;#432eff&quot;&gt;P. name&lt;/font&gt;" style="ellipse;whiteSpace=wrap;html=1;align=center;" vertex="1" parent="1">
          <mxGeometry x="-660" y="430" width="100" height="40" as="geometry" />
        </mxCell>
        <mxCell id="vUF_7vjwksg9Bk0UgLO3-47" value="&lt;font color=&quot;#432eff&quot;&gt;Code&lt;/font&gt;" style="ellipse;whiteSpace=wrap;html=1;align=center;" vertex="1" parent="1">
          <mxGeometry x="-660" y="480" width="100" height="40" as="geometry" />
        </mxCell>
        <mxCell id="vUF_7vjwksg9Bk0UgLO3-48" value="" style="endArrow=none;html=1;rounded=0;exitX=1;exitY=0.5;exitDx=0;exitDy=0;" edge="1" parent="1" source="vUF_7vjwksg9Bk0UgLO3-38" target="vUF_7vjwksg9Bk0UgLO3-5">
          <mxGeometry relative="1" as="geometry">
            <mxPoint x="-560" y="190" as="sourcePoint" />
            <mxPoint x="-400" y="190" as="targetPoint" />
            <Array as="points" />
          </mxGeometry>
        </mxCell>
        <mxCell id="vUF_7vjwksg9Bk0UgLO3-50" value="" style="endArrow=none;html=1;rounded=0;exitX=1;exitY=0.5;exitDx=0;exitDy=0;" edge="1" parent="1" source="vUF_7vjwksg9Bk0UgLO3-47" target="vUF_7vjwksg9Bk0UgLO3-5">
          <mxGeometry relative="1" as="geometry">
            <mxPoint x="-560" y="190" as="sourcePoint" />
            <mxPoint x="-400" y="190" as="targetPoint" />
          </mxGeometry>
        </mxCell>
        <mxCell id="vUF_7vjwksg9Bk0UgLO3-51" value="manage" style="shape=rhombus;perimeter=rhombusPerimeter;whiteSpace=wrap;html=1;align=center;" vertex="1" parent="1">
          <mxGeometry x="-210" y="130" width="120" height="60" as="geometry" />
        </mxCell>
        <mxCell id="vUF_7vjwksg9Bk0UgLO3-52" value="" style="endArrow=none;html=1;rounded=0;" edge="1" parent="1" source="vUF_7vjwksg9Bk0UgLO3-51" target="vUF_7vjwksg9Bk0UgLO3-4">
          <mxGeometry relative="1" as="geometry">
            <mxPoint x="-190" y="260" as="sourcePoint" />
            <mxPoint x="-30" y="260" as="targetPoint" />
          </mxGeometry>
        </mxCell>
        <mxCell id="vUF_7vjwksg9Bk0UgLO3-53" value="" style="endArrow=none;html=1;rounded=0;entryX=0;entryY=0.5;entryDx=0;entryDy=0;exitX=1;exitY=0.5;exitDx=0;exitDy=0;" edge="1" parent="1" source="vUF_7vjwksg9Bk0UgLO3-3" target="vUF_7vjwksg9Bk0UgLO3-51">
          <mxGeometry relative="1" as="geometry">
            <mxPoint x="-190" y="260" as="sourcePoint" />
            <mxPoint x="-30" y="260" as="targetPoint" />
          </mxGeometry>
        </mxCell>
        <mxCell id="vUF_7vjwksg9Bk0UgLO3-54" value="&lt;font color=&quot;#432eff&quot;&gt;ID&lt;/font&gt;" style="ellipse;whiteSpace=wrap;html=1;align=center;" vertex="1" parent="1">
          <mxGeometry x="70" y="50" width="60" height="40" as="geometry" />
        </mxCell>
        <mxCell id="vUF_7vjwksg9Bk0UgLO3-55" value="" style="endArrow=none;html=1;rounded=0;exitX=0.647;exitY=0.037;exitDx=0;exitDy=0;exitPerimeter=0;" edge="1" parent="1" source="vUF_7vjwksg9Bk0UgLO3-4" target="vUF_7vjwksg9Bk0UgLO3-54">
          <mxGeometry relative="1" as="geometry">
            <mxPoint x="100" y="260" as="sourcePoint" />
            <mxPoint x="260" y="260" as="targetPoint" />
          </mxGeometry>
        </mxCell>
        <mxCell id="vUF_7vjwksg9Bk0UgLO3-57" value="&lt;font color=&quot;#432eff&quot;&gt;Full name&lt;/font&gt;" style="ellipse;whiteSpace=wrap;html=1;align=center;" vertex="1" parent="1">
          <mxGeometry x="160" y="60" width="70" height="40" as="geometry" />
        </mxCell>
        <mxCell id="vUF_7vjwksg9Bk0UgLO3-58" value="" style="endArrow=none;html=1;rounded=0;entryX=0;entryY=0.5;entryDx=0;entryDy=0;" edge="1" parent="1" source="vUF_7vjwksg9Bk0UgLO3-4" target="vUF_7vjwksg9Bk0UgLO3-57">
          <mxGeometry relative="1" as="geometry">
            <mxPoint x="100" y="260" as="sourcePoint" />
            <mxPoint x="260" y="260" as="targetPoint" />
          </mxGeometry>
        </mxCell>
        <mxCell id="vUF_7vjwksg9Bk0UgLO3-59" value="&lt;font color=&quot;#432eff&quot;&gt;contact details&lt;/font&gt;" style="ellipse;whiteSpace=wrap;html=1;align=center;" vertex="1" parent="1">
          <mxGeometry x="190" y="100" width="100" height="40" as="geometry" />
        </mxCell>
        <mxCell id="vUF_7vjwksg9Bk0UgLO3-60" value="" style="endArrow=none;html=1;rounded=0;" edge="1" parent="1" source="vUF_7vjwksg9Bk0UgLO3-4" target="vUF_7vjwksg9Bk0UgLO3-59">
          <mxGeometry relative="1" as="geometry">
            <mxPoint x="100" y="260" as="sourcePoint" />
            <mxPoint x="260" y="260" as="targetPoint" />
          </mxGeometry>
        </mxCell>
        <mxCell id="vUF_7vjwksg9Bk0UgLO3-61" value="&lt;font color=&quot;#432eff&quot;&gt;date of employment&lt;/font&gt;" style="ellipse;whiteSpace=wrap;html=1;align=center;" vertex="1" parent="1">
          <mxGeometry x="220" y="150" width="100" height="40" as="geometry" />
        </mxCell>
        <mxCell id="vUF_7vjwksg9Bk0UgLO3-62" value="" style="endArrow=none;html=1;rounded=0;" edge="1" parent="1" source="vUF_7vjwksg9Bk0UgLO3-4" target="vUF_7vjwksg9Bk0UgLO3-61">
          <mxGeometry relative="1" as="geometry">
            <mxPoint x="100" y="260" as="sourcePoint" />
            <mxPoint x="260" y="260" as="targetPoint" />
          </mxGeometry>
        </mxCell>
        <mxCell id="vUF_7vjwksg9Bk0UgLO3-63" value="teach" style="shape=rhombus;perimeter=rhombusPerimeter;whiteSpace=wrap;html=1;align=center;" vertex="1" parent="1">
          <mxGeometry x="410" y="510" width="120" height="60" as="geometry" />
        </mxCell>
        <mxCell id="vUF_7vjwksg9Bk0UgLO3-64" value="" style="endArrow=none;html=1;rounded=0;entryX=0.5;entryY=0;entryDx=0;entryDy=0;" edge="1" parent="1" source="vUF_7vjwksg9Bk0UgLO3-4" target="vUF_7vjwksg9Bk0UgLO3-63">
          <mxGeometry relative="1" as="geometry">
            <mxPoint x="80" y="260" as="sourcePoint" />
            <mxPoint x="240" y="260" as="targetPoint" />
          </mxGeometry>
        </mxCell>
        <mxCell id="vUF_7vjwksg9Bk0UgLO3-65" value="" style="endArrow=none;html=1;rounded=0;entryX=0.171;entryY=0.051;entryDx=0;entryDy=0;entryPerimeter=0;exitX=0.5;exitY=1;exitDx=0;exitDy=0;" edge="1" parent="1" source="vUF_7vjwksg9Bk0UgLO3-63" target="vUF_7vjwksg9Bk0UgLO3-8">
          <mxGeometry relative="1" as="geometry">
            <mxPoint x="80" y="260" as="sourcePoint" />
            <mxPoint x="240" y="260" as="targetPoint" />
          </mxGeometry>
        </mxCell>
        <mxCell id="vUF_7vjwksg9Bk0UgLO3-66" value="advisor" style="shape=rhombus;perimeter=rhombusPerimeter;whiteSpace=wrap;html=1;align=center;" vertex="1" parent="1">
          <mxGeometry x="20" y="370" width="120" height="60" as="geometry" />
        </mxCell>
        <mxCell id="vUF_7vjwksg9Bk0UgLO3-67" value="" style="endArrow=none;html=1;rounded=0;exitX=0.5;exitY=0;exitDx=0;exitDy=0;entryX=0.34;entryY=0.986;entryDx=0;entryDy=0;entryPerimeter=0;" edge="1" parent="1" source="vUF_7vjwksg9Bk0UgLO3-66" target="vUF_7vjwksg9Bk0UgLO3-4">
          <mxGeometry relative="1" as="geometry">
            <mxPoint x="80" y="260" as="sourcePoint" />
            <mxPoint x="240" y="260" as="targetPoint" />
          </mxGeometry>
        </mxCell>
        <mxCell id="vUF_7vjwksg9Bk0UgLO3-68" value="" style="endArrow=none;html=1;rounded=0;exitX=0.5;exitY=1;exitDx=0;exitDy=0;entryX=0.421;entryY=0.018;entryDx=0;entryDy=0;entryPerimeter=0;" edge="1" parent="1" source="vUF_7vjwksg9Bk0UgLO3-66" target="vUF_7vjwksg9Bk0UgLO3-7">
          <mxGeometry relative="1" as="geometry">
            <mxPoint x="80" y="580" as="sourcePoint" />
            <mxPoint x="240" y="580" as="targetPoint" />
          </mxGeometry>
        </mxCell>
        <mxCell id="vUF_7vjwksg9Bk0UgLO3-69" value="&amp;nbsp;enroll" style="shape=rhombus;perimeter=rhombusPerimeter;whiteSpace=wrap;html=1;align=center;rotation=15;" vertex="1" parent="1">
          <mxGeometry x="-220" y="550" width="120" height="60" as="geometry" />
        </mxCell>
        <mxCell id="vUF_7vjwksg9Bk0UgLO3-70" value="" style="endArrow=none;html=1;rounded=0;exitX=1;exitY=0.5;exitDx=0;exitDy=0;entryX=0;entryY=0.5;entryDx=0;entryDy=0;" edge="1" parent="1" source="vUF_7vjwksg9Bk0UgLO3-5" target="vUF_7vjwksg9Bk0UgLO3-69">
          <mxGeometry relative="1" as="geometry">
            <mxPoint x="-140" y="340" as="sourcePoint" />
            <mxPoint x="20" y="340" as="targetPoint" />
          </mxGeometry>
        </mxCell>
        <mxCell id="vUF_7vjwksg9Bk0UgLO3-71" value="" style="endArrow=none;html=1;rounded=0;exitX=1;exitY=0.5;exitDx=0;exitDy=0;entryX=0;entryY=0.25;entryDx=0;entryDy=0;" edge="1" parent="1" source="vUF_7vjwksg9Bk0UgLO3-69" target="vUF_7vjwksg9Bk0UgLO3-7">
          <mxGeometry relative="1" as="geometry">
            <mxPoint x="-140" y="570" as="sourcePoint" />
            <mxPoint x="20" y="570" as="targetPoint" />
          </mxGeometry>
        </mxCell>
        <mxCell id="vUF_7vjwksg9Bk0UgLO3-72" value="S.ID" style="ellipse;whiteSpace=wrap;html=1;align=center;" vertex="1" parent="1">
          <mxGeometry x="-30" y="720" width="50" height="40" as="geometry" />
        </mxCell>
        <mxCell id="vUF_7vjwksg9Bk0UgLO3-73" value="" style="endArrow=none;html=1;rounded=0;exitX=0.568;exitY=-0.002;exitDx=0;exitDy=0;exitPerimeter=0;entryX=0.063;entryY=0.999;entryDx=0;entryDy=0;entryPerimeter=0;" edge="1" parent="1" source="vUF_7vjwksg9Bk0UgLO3-72" target="vUF_7vjwksg9Bk0UgLO3-7">
          <mxGeometry relative="1" as="geometry">
            <mxPoint x="50" y="710" as="sourcePoint" />
            <mxPoint x="210" y="710" as="targetPoint" />
          </mxGeometry>
        </mxCell>
        <mxCell id="vUF_7vjwksg9Bk0UgLO3-74" value="S. Full name" style="ellipse;whiteSpace=wrap;html=1;align=center;" vertex="1" parent="1">
          <mxGeometry x="30" y="730" width="100" height="40" as="geometry" />
        </mxCell>
        <mxCell id="vUF_7vjwksg9Bk0UgLO3-75" value="" style="endArrow=none;html=1;rounded=0;exitX=0.4;exitY=0;exitDx=0;exitDy=0;exitPerimeter=0;entryX=0.5;entryY=1;entryDx=0;entryDy=0;" edge="1" parent="1" source="vUF_7vjwksg9Bk0UgLO3-74" target="vUF_7vjwksg9Bk0UgLO3-7">
          <mxGeometry relative="1" as="geometry">
            <mxPoint x="50" y="710" as="sourcePoint" />
            <mxPoint x="210" y="710" as="targetPoint" />
          </mxGeometry>
        </mxCell>
        <mxCell id="vUF_7vjwksg9Bk0UgLO3-76" value="S. contact information" style="ellipse;whiteSpace=wrap;html=1;align=center;" vertex="1" parent="1">
          <mxGeometry x="140" y="730" width="100" height="40" as="geometry" />
        </mxCell>
        <mxCell id="vUF_7vjwksg9Bk0UgLO3-77" value="" style="endArrow=none;html=1;rounded=0;exitX=0.794;exitY=1.012;exitDx=0;exitDy=0;exitPerimeter=0;" edge="1" parent="1" source="vUF_7vjwksg9Bk0UgLO3-7" target="vUF_7vjwksg9Bk0UgLO3-76">
          <mxGeometry relative="1" as="geometry">
            <mxPoint x="50" y="710" as="sourcePoint" />
            <mxPoint x="210" y="710" as="targetPoint" />
          </mxGeometry>
        </mxCell>
        <mxCell id="vUF_7vjwksg9Bk0UgLO3-78" value="S. date of enrollment" style="ellipse;whiteSpace=wrap;html=1;align=center;" vertex="1" parent="1">
          <mxGeometry x="210" y="690" width="100" height="40" as="geometry" />
        </mxCell>
        <mxCell id="vUF_7vjwksg9Bk0UgLO3-79" value="" style="endArrow=none;html=1;rounded=0;exitX=0.987;exitY=0.896;exitDx=0;exitDy=0;exitPerimeter=0;entryX=0;entryY=0;entryDx=0;entryDy=0;" edge="1" parent="1" source="vUF_7vjwksg9Bk0UgLO3-7" target="vUF_7vjwksg9Bk0UgLO3-78">
          <mxGeometry relative="1" as="geometry">
            <mxPoint x="50" y="710" as="sourcePoint" />
            <mxPoint x="210" y="710" as="targetPoint" />
          </mxGeometry>
        </mxCell>
        <mxCell id="vUF_7vjwksg9Bk0UgLO3-80" value="current status" style="ellipse;whiteSpace=wrap;html=1;align=center;" vertex="1" parent="1">
          <mxGeometry x="200" y="640" width="100" height="40" as="geometry" />
        </mxCell>
        <mxCell id="vUF_7vjwksg9Bk0UgLO3-81" value="" style="endArrow=none;html=1;rounded=0;entryX=0;entryY=0.5;entryDx=0;entryDy=0;exitX=1;exitY=0.5;exitDx=0;exitDy=0;" edge="1" parent="1" source="vUF_7vjwksg9Bk0UgLO3-7" target="vUF_7vjwksg9Bk0UgLO3-80">
          <mxGeometry relative="1" as="geometry">
            <mxPoint x="50" y="710" as="sourcePoint" />
            <mxPoint x="210" y="710" as="targetPoint" />
          </mxGeometry>
        </mxCell>
        <mxCell id="vUF_7vjwksg9Bk0UgLO3-82" value="register" style="shape=rhombus;perimeter=rhombusPerimeter;whiteSpace=wrap;html=1;align=center;" vertex="1" parent="1">
          <mxGeometry x="110" y="870" width="120" height="60" as="geometry" />
        </mxCell>
        <mxCell id="vUF_7vjwksg9Bk0UgLO3-83" value="" style="endArrow=none;html=1;rounded=0;exitX=0.5;exitY=0;exitDx=0;exitDy=0;" edge="1" parent="1" source="vUF_7vjwksg9Bk0UgLO3-82" target="vUF_7vjwksg9Bk0UgLO3-7">
          <mxGeometry relative="1" as="geometry">
            <mxPoint x="-40" y="630" as="sourcePoint" />
            <mxPoint x="30" y="640" as="targetPoint" />
          </mxGeometry>
        </mxCell>
        <mxCell id="vUF_7vjwksg9Bk0UgLO3-84" value="" style="endArrow=none;html=1;rounded=0;exitX=0.5;exitY=1;exitDx=0;exitDy=0;entryX=0;entryY=0.25;entryDx=0;entryDy=0;" edge="1" parent="1" source="vUF_7vjwksg9Bk0UgLO3-82" target="vUF_7vjwksg9Bk0UgLO3-8">
          <mxGeometry relative="1" as="geometry">
            <mxPoint x="-100" y="650" as="sourcePoint" />
            <mxPoint x="60" y="650" as="targetPoint" />
          </mxGeometry>
        </mxCell>
        <mxCell id="vUF_7vjwksg9Bk0UgLO3-86" value="have" style="shape=rhombus;perimeter=rhombusPerimeter;whiteSpace=wrap;html=1;align=center;" vertex="1" parent="1">
          <mxGeometry x="-140" y="970" width="120" height="60" as="geometry" />
        </mxCell>
        <mxCell id="vUF_7vjwksg9Bk0UgLO3-87" value="" style="endArrow=none;html=1;rounded=0;entryX=0;entryY=0.5;entryDx=0;entryDy=0;exitX=1;exitY=0.5;exitDx=0;exitDy=0;" edge="1" parent="1" source="vUF_7vjwksg9Bk0UgLO3-86" target="vUF_7vjwksg9Bk0UgLO3-8">
          <mxGeometry relative="1" as="geometry">
            <mxPoint x="350" y="820" as="sourcePoint" />
            <mxPoint x="510" y="820" as="targetPoint" />
          </mxGeometry>
        </mxCell>
        <mxCell id="vUF_7vjwksg9Bk0UgLO3-88" value="" style="endArrow=none;html=1;rounded=0;exitX=0;exitY=0.5;exitDx=0;exitDy=0;entryX=1;entryY=0.5;entryDx=0;entryDy=0;" edge="1" parent="1" source="vUF_7vjwksg9Bk0UgLO3-86" target="vUF_7vjwksg9Bk0UgLO3-6">
          <mxGeometry relative="1" as="geometry">
            <mxPoint x="210" y="880" as="sourcePoint" />
            <mxPoint x="370" y="880" as="targetPoint" />
          </mxGeometry>
        </mxCell>
        <mxCell id="vUF_7vjwksg9Bk0UgLO3-89" value="include" style="shape=rhombus;perimeter=rhombusPerimeter;whiteSpace=wrap;html=1;align=center;" vertex="1" parent="1">
          <mxGeometry x="-485" y="690" width="120" height="60" as="geometry" />
        </mxCell>
        <mxCell id="vUF_7vjwksg9Bk0UgLO3-90" value="" style="endArrow=none;html=1;rounded=0;entryX=0.5;entryY=1;entryDx=0;entryDy=0;exitX=0.5;exitY=0;exitDx=0;exitDy=0;" edge="1" parent="1" source="vUF_7vjwksg9Bk0UgLO3-89" target="vUF_7vjwksg9Bk0UgLO3-5">
          <mxGeometry relative="1" as="geometry">
            <mxPoint x="120" y="880" as="sourcePoint" />
            <mxPoint x="280" y="880" as="targetPoint" />
          </mxGeometry>
        </mxCell>
        <mxCell id="vUF_7vjwksg9Bk0UgLO3-91" value="" style="endArrow=none;html=1;rounded=0;exitX=0.5;exitY=0;exitDx=0;exitDy=0;entryX=0.5;entryY=1;entryDx=0;entryDy=0;" edge="1" parent="1" source="vUF_7vjwksg9Bk0UgLO3-6" target="vUF_7vjwksg9Bk0UgLO3-89">
          <mxGeometry relative="1" as="geometry">
            <mxPoint x="120" y="880" as="sourcePoint" />
            <mxPoint x="280" y="880" as="targetPoint" />
          </mxGeometry>
        </mxCell>
        <mxCell id="vUF_7vjwksg9Bk0UgLO3-92" value="class ID" style="ellipse;whiteSpace=wrap;html=1;align=center;" vertex="1" parent="1">
          <mxGeometry x="460" y="940" width="100" height="40" as="geometry" />
        </mxCell>
        <mxCell id="vUF_7vjwksg9Bk0UgLO3-93" value="" style="endArrow=none;html=1;rounded=0;exitX=1;exitY=0.25;exitDx=0;exitDy=0;entryX=0.019;entryY=0.707;entryDx=0;entryDy=0;entryPerimeter=0;" edge="1" parent="1" source="vUF_7vjwksg9Bk0UgLO3-8" target="vUF_7vjwksg9Bk0UgLO3-92">
          <mxGeometry relative="1" as="geometry">
            <mxPoint x="450" y="880" as="sourcePoint" />
            <mxPoint x="610" y="880" as="targetPoint" />
          </mxGeometry>
        </mxCell>
        <mxCell id="vUF_7vjwksg9Bk0UgLO3-94" value="schedule" style="ellipse;whiteSpace=wrap;html=1;align=center;" vertex="1" parent="1">
          <mxGeometry x="470" y="1000" width="100" height="40" as="geometry" />
        </mxCell>
        <mxCell id="vUF_7vjwksg9Bk0UgLO3-95" value="" style="endArrow=none;html=1;rounded=0;exitX=1;exitY=0.75;exitDx=0;exitDy=0;entryX=0;entryY=0.5;entryDx=0;entryDy=0;" edge="1" parent="1" source="vUF_7vjwksg9Bk0UgLO3-8" target="vUF_7vjwksg9Bk0UgLO3-94">
          <mxGeometry relative="1" as="geometry">
            <mxPoint x="450" y="880" as="sourcePoint" />
            <mxPoint x="610" y="880" as="targetPoint" />
          </mxGeometry>
        </mxCell>
        <mxCell id="vUF_7vjwksg9Bk0UgLO3-96" value="room location" style="ellipse;whiteSpace=wrap;html=1;align=center;" vertex="1" parent="1">
          <mxGeometry x="400" y="1060" width="100" height="40" as="geometry" />
        </mxCell>
        <mxCell id="vUF_7vjwksg9Bk0UgLO3-97" value="" style="endArrow=none;html=1;rounded=0;exitX=0.75;exitY=1;exitDx=0;exitDy=0;entryX=0;entryY=0;entryDx=0;entryDy=0;" edge="1" parent="1" source="vUF_7vjwksg9Bk0UgLO3-8" target="vUF_7vjwksg9Bk0UgLO3-96">
          <mxGeometry relative="1" as="geometry">
            <mxPoint x="450" y="880" as="sourcePoint" />
            <mxPoint x="610" y="880" as="targetPoint" />
          </mxGeometry>
        </mxCell>
        <mxCell id="vUF_7vjwksg9Bk0UgLO3-98" value="Full-time" style="ellipse;whiteSpace=wrap;html=1;align=center;" vertex="1" parent="1">
          <mxGeometry x="200" y="590" width="50" height="40" as="geometry" />
        </mxCell>
        <mxCell id="vUF_7vjwksg9Bk0UgLO3-99" value="" style="endArrow=none;html=1;rounded=0;exitX=0.5;exitY=1;exitDx=0;exitDy=0;entryX=0.307;entryY=0.018;entryDx=0;entryDy=0;entryPerimeter=0;" edge="1" parent="1" source="vUF_7vjwksg9Bk0UgLO3-98" target="vUF_7vjwksg9Bk0UgLO3-80">
          <mxGeometry relative="1" as="geometry">
            <mxPoint x="150" y="610" as="sourcePoint" />
            <mxPoint x="310" y="610" as="targetPoint" />
          </mxGeometry>
        </mxCell>
        <mxCell id="vUF_7vjwksg9Bk0UgLO3-101" value="part-time" style="ellipse;whiteSpace=wrap;html=1;align=center;" vertex="1" parent="1">
          <mxGeometry x="260" y="590" width="50" height="40" as="geometry" />
        </mxCell>
        <mxCell id="vUF_7vjwksg9Bk0UgLO3-102" value="" style="endArrow=none;html=1;rounded=0;exitX=0.5;exitY=1;exitDx=0;exitDy=0;entryX=0.753;entryY=0.089;entryDx=0;entryDy=0;entryPerimeter=0;" edge="1" parent="1" source="vUF_7vjwksg9Bk0UgLO3-101" target="vUF_7vjwksg9Bk0UgLO3-80">
          <mxGeometry relative="1" as="geometry">
            <mxPoint x="150" y="610" as="sourcePoint" />
            <mxPoint x="310" y="610" as="targetPoint" />
          </mxGeometry>
        </mxCell>
        <mxCell id="vUF_7vjwksg9Bk0UgLO3-103" value="take" style="shape=rhombus;perimeter=rhombusPerimeter;whiteSpace=wrap;html=1;align=center;rotation=-30;" vertex="1" parent="1">
          <mxGeometry x="-260" y="740" width="120" height="60" as="geometry" />
        </mxCell>
        <mxCell id="vUF_7vjwksg9Bk0UgLO3-104" value="" style="endArrow=none;html=1;rounded=0;exitX=1;exitY=0.5;exitDx=0;exitDy=0;entryX=0.011;entryY=0.649;entryDx=0;entryDy=0;entryPerimeter=0;" edge="1" parent="1" source="vUF_7vjwksg9Bk0UgLO3-103" target="vUF_7vjwksg9Bk0UgLO3-7">
          <mxGeometry relative="1" as="geometry">
            <mxPoint x="-70" y="710" as="sourcePoint" />
            <mxPoint x="90" y="710" as="targetPoint" />
          </mxGeometry>
        </mxCell>
        <mxCell id="vUF_7vjwksg9Bk0UgLO3-105" value="" style="endArrow=none;html=1;rounded=0;exitX=0.991;exitY=0.131;exitDx=0;exitDy=0;entryX=0;entryY=0.5;entryDx=0;entryDy=0;exitPerimeter=0;" edge="1" parent="1" source="vUF_7vjwksg9Bk0UgLO3-6" target="vUF_7vjwksg9Bk0UgLO3-103">
          <mxGeometry relative="1" as="geometry">
            <mxPoint x="-70" y="710" as="sourcePoint" />
            <mxPoint x="90" y="710" as="targetPoint" />
          </mxGeometry>
        </mxCell>
      </root>
    </mxGraphModel>
  </diagram>
</mxfile>
